<?xml version="1.0" encoding="UTF-8" standalone="no"?>
<!-- Created with Inkscape (http://www.inkscape.org/) -->

<svg
   xmlns:dc="http://purl.org/dc/elements/1.1/"
   xmlns:cc="http://creativecommons.org/ns#"
   xmlns:rdf="http://www.w3.org/1999/02/22-rdf-syntax-ns#"
   xmlns:svg="http://www.w3.org/2000/svg"
   xmlns="http://www.w3.org/2000/svg"
   xmlns:sodipodi="http://sodipodi.sourceforge.net/DTD/sodipodi-0.dtd"
   xmlns:inkscape="http://www.inkscape.org/namespaces/inkscape"
   width="240.10657mm"
   height="69.886574mm"
   viewBox="0 0 274.86947 29.951389"
   version="1.1"
   id="svg880"
   inkscape:version="0.92.5 (2060ec1f9f, 2020-04-08)"
   sodipodi:docname="FlowerIcon_WhiteLtrs_Orange_Landscape.svg">
  <defs
     id="defs874">
    <clipPath
       clipPathUnits="userSpaceOnUse"
       id="clipPath1487">
      <g
         id="use1489"
         inkscape:label="Clip">
        <g
           style="fill:#50c878;fill-opacity:1"
           clip-path="url(#clipPath1803)"
           id="g6702">
          <g
             style="fill:#50c878;fill-opacity:1"
             id="g6700"
             inkscape:label="Clip" />
        </g>
      </g>
    </clipPath>
    <clipPath
       clipPathUnits="userSpaceOnUse"
       id="clipPath1558">
      <g
         style="fill:#ffffee;fill-opacity:1;stroke:none;stroke-width:0.83377606;stroke-miterlimit:4;stroke-dasharray:none;stroke-opacity:1"
         inkscape:label="Clip"
         id="use1560" />
    </clipPath>
    <clipPath
       clipPathUnits="userSpaceOnUse"
       id="clipPath1708">
      <g
         clip-path="none"
         style="display:inline;fill:#ffffee;fill-opacity:1;stroke:none;stroke-width:1.00053871;stroke-miterlimit:4;stroke-dasharray:none;stroke-opacity:1"
         inkscape:label="Clip"
         id="use1710" />
    </clipPath>
    <clipPath
       clipPathUnits="userSpaceOnUse"
       id="clipPath1728">
      <g
         inkscape:label="Clip"
         id="use1730"
         style="image-rendering:auto" />
    </clipPath>
    <clipPath
       clipPathUnits="userSpaceOnUse"
       id="clipPath1803">
      <g
         style="fill:#50c878;fill-opacity:1"
         id="use1805"
         inkscape:label="Clip" />
    </clipPath>
  </defs>
  <sodipodi:namedview
     id="base"
     pagecolor="#ffffff"
     bordercolor="#666666"
     borderopacity="1.0"
     inkscape:pageopacity="0.0"
     inkscape:pageshadow="2"
     inkscape:zoom="0.98994949"
     inkscape:cx="380.61125"
     inkscape:cy="171.06998"
     inkscape:document-units="mm"
     inkscape:current-layer="g6876"
     showgrid="true"
     viewbox-width="340"
     inkscape:window-width="1920"
     inkscape:window-height="1052"
     inkscape:window-x="0"
     inkscape:window-y="0"
     inkscape:window-maximized="1"
     fit-margin-top="0"
     fit-margin-left="0"
     fit-margin-right="0"
     fit-margin-bottom="0"
     inkscape:pagecheckerboard="false">
    <inkscape:grid
       type="xygrid"
       id="grid1712"
       originx="-29.560194"
       originy="-22.608874" />
  </sodipodi:namedview>
  <metadata
     id="metadata877">
    <rdf:RDF>
      <cc:Work
         rdf:about="">
        <dc:format>image/svg+xml</dc:format>
        <dc:type
           rdf:resource="http://purl.org/dc/dcmitype/StillImage" />
        <dc:title></dc:title>
      </cc:Work>
    </rdf:RDF>
  </metadata>
  <g
     inkscape:label="Layer 1"
     inkscape:groupmode="layer"
     id="layer1"
     transform="translate(-29.560196,-187.00738)"
     style="display:inline">
    <g
       id="g6792"
       inkscape:label="flower">
      <g
         id="g6876"
         inkscape:label="words"
         transform="matrix(0.96873685,0,0,0.97186575,6.3713456,-41.18873)">
        <g
           id="g6917"
           inkscape:label="SCIENCE"
           transform="matrix(0.8593253,0,0,0.8593253,31.158229,40.771259)">
          <path
             d="m 272.16548,255.93121 c 0,1.37914 -1.11816,2.49666 -2.49653,2.49666 -1.37905,0 -2.49721,-1.11752 -2.49721,-2.49666 0,-1.37892 1.11816,-2.49641 2.49721,-2.49641 1.37837,0 2.49653,1.11749 2.49653,2.49641"
             style="opacity:1;fill:#ffffff;fill-opacity:1;fill-rule:nonzero;stroke:none;stroke-width:1.00053871;stroke-miterlimit:4;stroke-dasharray:none;stroke-opacity:1"
             id="path64"
             inkscape:connector-curvature="0" />
          <path
             d="m 111.1226,255.93121 c 0,1.37914 -1.11777,2.49666 -2.49667,2.49666 -1.37863,0 -2.49641,-1.11752 -2.49641,-2.49666 0,-1.37892 1.11778,-2.49641 2.49641,-2.49641 1.3789,0 2.49667,1.11749 2.49667,2.49641"
             style="opacity:1;fill:#ffffff;fill-opacity:1;fill-rule:nonzero;stroke:none;stroke-width:1.00053871;stroke-miterlimit:4;stroke-dasharray:none;stroke-opacity:1"
             id="path62"
             inkscape:connector-curvature="0" />
          <path
             d="m 244.27059,263.41677 v -14.9703 h 10.34574 v 1.55969 h -8.62444 v 5.12784 h 6.70635 v 1.55924 h -6.70635 v 5.14577 h 8.62444 v 1.57776 h -10.34574"
             style="opacity:1;fill:#ffffff;fill-opacity:1;fill-rule:nonzero;stroke:none;stroke-width:1.00053871;stroke-miterlimit:4;stroke-dasharray:none;stroke-opacity:1"
             id="path60"
             inkscape:connector-curvature="0" />
          <path
             d="m 230.91326,263.84729 c -1.57785,0 -3.03896,-0.35626 -4.38396,-1.06694 -1.34433,-0.71122 -2.40579,-1.67652 -3.18171,-2.8954 -0.77791,-1.21889 -1.16555,-2.54593 -1.16555,-3.98029 0,-1.43442 0.38764,-2.76067 1.16555,-3.98039 0.77592,-1.21966 1.83738,-2.18444 3.18171,-2.89564 1.345,-0.71093 2.80611,-1.06666 4.38396,-1.06666 1.66189,0 3.20973,0.41231 4.64413,1.23687 l -0.914,1.32706 c -1.13687,-0.64503 -2.37979,-0.96874 -3.73013,-0.96874 -1.92412,0 -3.57134,0.61847 -4.9397,1.85532 -1.36771,1.23759 -2.05222,2.73486 -2.05222,4.49218 0,1.75726 0.68451,3.2537 2.05222,4.49134 1.36836,1.23687 3.01558,1.85531 4.9397,1.85531 1.35034,0 2.59326,-0.32213 3.73013,-0.96793 l 0.914,1.32678 c -1.4344,0.82484 -2.98224,1.23713 -4.64413,1.23713"
             style="opacity:1;fill:#ffffff;fill-opacity:1;fill-rule:nonzero;stroke:none;stroke-width:1.00053871;stroke-miterlimit:4;stroke-dasharray:none;stroke-opacity:1"
             id="path58"
             inkscape:connector-curvature="0" />
          <path
             d="m 198.8379,263.435 v -14.98853 h 2.06154 l 11.17103,12.92631 v -12.92631 h 1.774 V 263.435 h -2.22301 L 200.59454,250.66945 V 263.435 h -1.75664"
             style="opacity:1;fill:#ffffff;fill-opacity:1;fill-rule:nonzero;stroke:none;stroke-width:1.00053871;stroke-miterlimit:4;stroke-dasharray:none;stroke-opacity:1"
             id="path56"
             inkscape:connector-curvature="0" />
          <path
             d="m 179.79697,263.41677 v -14.9703 h 10.34507 v 1.55969 h -8.62378 v 5.12784 h 6.70501 v 1.55924 h -6.70501 v 5.14577 h 8.62378 v 1.57776 h -10.34507"
             style="opacity:1;fill:#ffffff;fill-opacity:1;fill-rule:nonzero;stroke:none;stroke-width:1.00053871;stroke-miterlimit:4;stroke-dasharray:none;stroke-opacity:1"
             id="path54"
             inkscape:connector-curvature="0" />
          <path
             d="m 168.78873,263.435 v -14.98853 h 1.73864 V 263.435 h -1.73864"
             style="opacity:1;fill:#ffffff;fill-opacity:1;fill-rule:nonzero;stroke:none;stroke-width:1.00053871;stroke-miterlimit:4;stroke-dasharray:none;stroke-opacity:1"
             id="path52"
             inkscape:connector-curvature="0" />
          <path
             d="m 155.43138,263.84729 c -1.57785,0 -3.03894,-0.35626 -4.38461,-1.06694 -1.34434,-0.71122 -2.40514,-1.67652 -3.18172,-2.8954 -0.77724,-1.21889 -1.16553,-2.54593 -1.16553,-3.98029 0,-1.43442 0.38829,-2.76067 1.16553,-3.98039 0.77658,-1.21966 1.83738,-2.18444 3.18172,-2.89564 1.34567,-0.71093 2.80676,-1.06666 4.38461,-1.06666 1.66059,0 3.20909,0.41231 4.64349,1.23687 l -0.91469,1.32706 c -1.13552,-0.64503 -2.37844,-0.96874 -3.7288,-0.96874 -1.92477,0 -3.57134,0.61847 -4.93969,1.85532 -1.36902,1.23759 -2.05287,2.73486 -2.05287,4.49218 0,1.75726 0.68385,3.2537 2.05287,4.49134 1.36835,1.23687 3.01492,1.85531 4.93969,1.85531 1.35036,0 2.59328,-0.32213 3.7288,-0.96793 l 0.91469,1.32678 c -1.4344,0.82484 -2.9829,1.23713 -4.64349,1.23713"
             style="opacity:1;fill:#ffffff;fill-opacity:1;fill-rule:nonzero;stroke:none;stroke-width:1.00053871;stroke-miterlimit:4;stroke-dasharray:none;stroke-opacity:1"
             id="path50"
             inkscape:connector-curvature="0" />
          <path
             d="m 131.13718,263.90123 c -1.24358,0 -2.33107,-0.13427 -3.26376,-0.4042 -0.93203,-0.26895 -1.65792,-0.60333 -2.17764,-1.00361 -0.52039,-0.40031 -0.9387,-0.87592 -1.25561,-1.42503 -0.31624,-0.55041 -0.52238,-1.05809 -0.61845,-1.52433 -0.0953,-0.4657 -0.14354,-0.95018 -0.14354,-1.45238 h 1.7393 c 0,1.4344 0.47236,2.5011 1.4164,3.20084 0.94404,0.69869 2.37844,1.04896 4.30321,1.04896 0.7886,0 1.49378,-0.0388 2.11559,-0.11669 0.6218,-0.0781 1.12952,-0.17096 1.52448,-0.27755 0.39363,-0.10817 0.7312,-0.25097 1.01276,-0.43105 0.2802,-0.17948 0.48702,-0.34036 0.61779,-0.48369 0.1322,-0.14335 0.23351,-0.32551 0.30556,-0.54651 0.0715,-0.22152 0.11272,-0.38883 0.12539,-0.50221 0.0113,-0.11366 0.0189,-0.26034 0.0189,-0.43964 0,-0.25149 -0.008,-0.43652 -0.0189,-0.55589 -0.0132,-0.11877 -0.048,-0.27806 -0.10742,-0.47509 -0.0607,-0.19729 -0.15281,-0.34949 -0.27821,-0.45764 -0.12539,-0.10742 -0.3049,-0.23871 -0.53774,-0.39352 -0.23351,-0.15564 -0.52906,-0.29032 -0.88733,-0.40369 -0.35892,-0.11347 -0.8066,-0.2395 -1.345,-0.37686 -0.5384,-0.13749 -1.15954,-0.27153 -1.86473,-0.40318 -0.16736,-0.0352 -0.42765,-0.0834 -0.77992,-0.14335 -0.35227,-0.0594 -0.62447,-0.10818 -0.81595,-0.14335 -0.89666,-0.15565 -1.54182,-0.27233 -1.93611,-0.34972 -0.39496,-0.0773 -0.85465,-0.18817 -1.38038,-0.33152 -0.52572,-0.14354 -0.96272,-0.3049 -1.30898,-0.48443 -1.27894,-0.63381 -1.91877,-1.67311 -1.91877,-3.11954 0,-1.46982 0.71788,-2.53395 2.15162,-3.19172 1.14755,-0.50162 2.89817,-0.75262 5.25328,-0.75262 2.34242,0 4.12975,0.32892 5.36134,0.98614 1.39772,0.75237 2.09759,1.91811 2.09759,3.49588 h -1.7213 c 0,-0.28694 -0.0333,-0.54967 -0.0987,-0.78866 -0.066,-0.2387 -0.2155,-0.49564 -0.44834,-0.77111 -0.23284,-0.27494 -0.54708,-0.50456 -0.94137,-0.69064 -0.39429,-0.18476 -0.95605,-0.34012 -1.68525,-0.46568 -0.72922,-0.12539 -1.58387,-0.18874 -2.56393,-0.18874 -1.5058,0 -2.68935,0.10534 -3.54933,0.3143 -0.8613,0.20956 -1.42839,0.47489 -1.70394,0.79773 -0.27554,0.32237 -0.41231,0.74148 -0.41231,1.25514 0,0.81308 0.31091,1.37497 0.93271,1.68512 0.62112,0.31091 2.0195,0.65724 4.19513,1.04011 0.0713,0.0113 0.60913,0.11366 1.61388,0.30437 2.53389,0.47822 4.23117,1.0221 5.09181,1.63195 0.89667,0.65777 1.34435,1.64917 1.34435,2.97619 0,1.42294 -0.56709,2.49173 -1.70328,3.20969 -1.18289,0.76387 -3.10166,1.14748 -5.75497,1.14748"
             style="opacity:1;fill:#ffffff;fill-opacity:1;fill-rule:nonzero;stroke:none;stroke-width:1.00053871;stroke-miterlimit:4;stroke-dasharray:none;stroke-opacity:1"
             id="path48"
             inkscape:connector-curvature="0" />
        </g>
        <g
           id="g6906"
           inkscape:label="LANSCAPE"
           transform="matrix(1.1272538,0,0,1.1272538,-18.934509,-28.320944)">
          <path
             d="m 110.36869,227.83074 h 1.66398 v 12.58644 h 6.67713 v 1.49299 h -8.34111 v -14.07943"
             style="fill:#ffffff;fill-opacity:1;fill-rule:nonzero;stroke:none;stroke-width:0.83377606;stroke-miterlimit:4;stroke-dasharray:none;stroke-opacity:1"
             id="path14"
             inkscape:connector-curvature="0" />
          <path
             d="m 130.97394,230.62555 -2.81573,6.93318 h 5.63175 z m 3.45599,8.42599 h -6.91169 l -1.19475,2.85863 h -1.74929 l 6.10112,-14.31396 h 0.61873 l 6.10112,14.31396 h -1.77063 l -1.19461,-2.85863"
             style="opacity:1;fill:#ffffff;fill-opacity:1;fill-rule:nonzero;stroke:none;stroke-width:0.83377606;stroke-miterlimit:4;stroke-dasharray:none;stroke-opacity:1"
             id="path16"
             inkscape:connector-curvature="0" />
          <path
             d="m 155.90948,227.83074 v 14.3141 h -0.59726 l -8.95985,-10.79429 v 10.55962 h -1.66377 v -14.31396 h 0.59708 l 8.95974,10.81554 v -10.58101 h 1.66406"
             style="opacity:1;fill:#ffffff;fill-opacity:1;fill-rule:nonzero;stroke:none;stroke-width:0.83377606;stroke-miterlimit:4;stroke-dasharray:none;stroke-opacity:1"
             id="path18"
             inkscape:connector-curvature="0" />
          <path
             d="m 168.64264,240.41718 c 3.71193,0 5.95171,-2.36816 5.95171,-5.56782 0,-3.2428 -2.21862,-5.52524 -5.95171,-5.52524 h -2.49591 v 11.09306 z m -4.15996,-12.58644 h 4.18112 c 4.71453,0 7.65846,2.92255 7.65846,7.01862 0,4.0531 -2.94393,7.06081 -7.65846,7.06081 h -4.18112 v -14.07943"
             style="opacity:1;fill:#ffffff;fill-opacity:1;fill-rule:nonzero;stroke:none;stroke-width:0.83377606;stroke-miterlimit:4;stroke-dasharray:none;stroke-opacity:1"
             id="path20"
             inkscape:connector-curvature="0" />
          <path
             d="m 184.14863,238.19828 c 1.04528,1.60016 2.36785,2.41088 3.92536,2.41088 1.68487,0 2.83704,-0.91764 2.83704,-2.34667 0,-1.27992 -0.76765,-1.70685 -2.34668,-2.47481 l -1.57833,-0.74648 c -1.94133,-0.91722 -3.17888,-1.89868 -3.17888,-3.77571 0,-2.19756 1.94134,-3.66928 4.24533,-3.66928 1.87713,0 3.4985,0.95995 4.41607,2.38894 l -1.21637,0.91765 c -0.76765,-1.13069 -1.94134,-1.77063 -3.22087,-1.77063 -1.38677,0 -2.49625,0.74648 -2.49625,2.04791 0,0.40542 0.0857,0.74648 0.27728,1.02373 0.36301,0.53343 0.87489,0.81072 1.98402,1.34415 l 1.55752,0.74676 c 2.21862,1.08793 3.28506,2.11184 3.28506,3.92504 0,2.32516 -1.91981,3.92508 -4.54377,3.92508 -2.1971,0 -4.07459,-1.15189 -5.18372,-3.02906 l 1.23719,-0.9175"
             style="opacity:1;fill:#ffffff;fill-opacity:1;fill-rule:nonzero;stroke:none;stroke-width:0.83377606;stroke-miterlimit:4;stroke-dasharray:none;stroke-opacity:1"
             id="path22"
             inkscape:connector-curvature="0" />
          <path
             d="m 206.97229,227.59621 c 2.49591,0 4.65067,1.17299 5.84518,3.02934 l -1.23754,0.98101 c -1.08797,-1.55716 -2.64513,-2.47439 -4.58647,-2.47439 -3.17817,0 -5.61022,2.47439 -5.61022,5.73829 0,3.26386 2.43205,5.7387 5.61022,5.7387 1.94134,0 3.4985,-0.91764 4.58647,-2.47484 l 1.23754,0.98146 c -1.17334,1.85593 -3.34927,3.02906 -5.84518,3.02906 -3.98921,0.0641 -7.40233,-3.24238 -7.31696,-7.27438 -0.0854,-4.03187 3.32775,-7.33849 7.31696,-7.27425"
             style="opacity:1;fill:#ffffff;fill-opacity:1;fill-rule:nonzero;stroke:none;stroke-width:0.83377606;stroke-miterlimit:4;stroke-dasharray:none;stroke-opacity:1"
             id="path24"
             inkscape:connector-curvature="0" />
          <path
             d="m 225.42293,230.62555 -2.81623,6.93318 h 5.6321 z m 3.45581,8.42599 h -6.91163 l -1.19485,2.85863 h -1.74907 l 6.10093,-14.31396 h 0.61878 l 6.10129,14.31396 h -1.77095 l -1.1945,-2.85863"
             style="opacity:1;fill:#ffffff;fill-opacity:1;fill-rule:nonzero;stroke:none;stroke-width:0.83377606;stroke-miterlimit:4;stroke-dasharray:none;stroke-opacity:1"
             id="path26"
             inkscape:connector-curvature="0" />
          <path
             d="m 244.04395,234.52939 c 1.79176,0 2.81587,-1.04524 2.81587,-2.60283 0,-1.53596 -1.02411,-2.60244 -2.81587,-2.60244 h -3.24274 v 5.20527 z m -4.90644,-6.69865 h 4.94912 c 2.7305,0 4.50109,1.70685 4.50109,4.07458 0,2.41061 -1.77059,4.11731 -4.50109,4.11731 h -3.28542 v 5.88754 h -1.6637 v -14.07943"
             style="opacity:1;fill:#ffffff;fill-opacity:1;fill-rule:nonzero;stroke:none;stroke-width:0.83377606;stroke-miterlimit:4;stroke-dasharray:none;stroke-opacity:1"
             id="path28"
             inkscape:connector-curvature="0" />
          <path
             d="m 256.05215,227.83074 h 9.0237 v 1.49338 h -7.35965 v 4.30914 h 5.63175 v 1.49338 h -5.63175 v 5.29054 h 7.61577 v 1.49299 h -9.27982 v -14.07943"
             style="opacity:1;fill:#ffffff;fill-opacity:1;fill-rule:nonzero;stroke:none;stroke-width:0.83377606;stroke-miterlimit:4;stroke-dasharray:none;stroke-opacity:1"
             id="path30"
             inkscape:connector-curvature="0" />
        </g>
      </g>
      <g
         id="g6802"
         inkscape:label="green-atom">
        <path
           d="m 55.386779,218.91952 c -0.551328,0 -1.073886,-0.12565 -1.555343,-0.40337 -4.048942,-2.33801 -0.250123,-12.59247 1.571196,-16.89329 0.849009,-2.00627 1.829539,-4.07126 2.913406,-6.13741 0.580098,-1.10912 1.205405,-2.24583 1.858309,-3.37608 0.655839,-1.1326 1.32577,-2.24171 1.992178,-3.29564 l 0.308837,-0.48087 c 1.151389,-1.79548 2.344464,-3.51288 3.552218,-5.11049 2.811831,-3.7266 9.790618,-12.14331 13.84367,-9.80765 4.049529,2.33801 0.250123,12.59305 -1.571783,16.89329 l -1.901758,-0.80556 c 3.894523,-9.19525 3.563961,-13.6505 2.440755,-14.2987 -1.124966,-0.64762 -5.148661,1.29289 -11.162772,9.26336 -1.281147,1.69508 -2.545854,3.52815 -3.760654,5.44987 l -0.304727,0.48087 c -0.552502,0.886 -1.105004,1.80722 -1.648112,2.74489 -0.637638,1.10501 -1.249442,2.21588 -1.816622,3.30151 -1.05862,2.01625 -2.013902,4.02957 -2.8406,5.98358 -3.89511,9.19525 -3.564549,13.65109 -2.441343,14.29988 1.124967,0.64645 5.148661,-1.29348 11.163359,-9.26395 1.262946,-1.67101 2.52824,-3.50525 3.760654,-5.45104 0.63118,-0.99286 1.287606,-2.07849 1.95284,-3.22753 0.609455,-1.05275 1.203644,-2.13192 1.817209,-3.29974 l 1.828365,0.96056 c -0.626482,1.19308 -1.234763,2.29691 -1.858897,3.37373 -0.678738,1.1737 -1.349843,2.28399 -1.995113,3.29916 -1.262359,1.99276 -2.559946,3.87338 -3.856359,5.5896 -2.47892,3.2839 -8.193,10.21102 -12.288913,10.21102"
           style="fill:#72aa2d;fill-opacity:1;fill-rule:nonzero;stroke:none;stroke-width:0.05871435"
           id="path32"
           inkscape:connector-curvature="0" />
        <path
           d="m 66.851343,203.67492 c -1.282909,0 -2.578147,-0.0258 -3.851074,-0.0775 -2.359143,-0.0975 -4.638434,-0.28124 -6.773875,-0.54663 -4.633149,-0.57188 -15.412517,-2.40611 -15.412517,-7.08565 0,-4.67894 10.779368,-6.51318 15.413691,-7.08447 l 0.252472,2.04972 c -9.908634,1.22184 -13.601179,3.73716 -13.601179,5.03475 0,1.29876 3.692545,3.81409 13.601179,5.03593 2.080837,0.25834 4.302588,0.43742 6.604777,0.53254 2.488314,0.10099 5.04415,0.10099 7.533638,0 2.301603,-0.0951 4.523354,-0.2742 6.603016,-0.53254 9.909221,-1.22184 13.601767,-3.73717 13.601767,-5.03593 0,-1.29759 -3.692546,-3.81291 -13.60118,-5.03475 -2.072029,-0.25776 -4.286147,-0.43684 -6.583052,-0.53254 l -0.02055,-5.9e-4 c -2.497708,-0.10099 -5.037691,-0.10099 -7.534812,0 l -0.0411,5.9e-4 -0.0018,-1.07154 -0.03993,-0.99286 c 2.545267,-0.10275 5.13457,-0.10275 7.680424,-5.9e-4 l 0.02466,5.9e-4 c 2.35973,0.0981 4.637846,0.28183 6.770352,0.54722 4.633736,0.57129 15.412516,2.40553 15.412516,7.08447 0,4.67954 -10.77878,6.51377 -15.413691,7.08565 -2.134853,0.26539 -4.41297,0.44916 -6.772113,0.54663 -1.273514,0.0517 -2.56934,0.0775 -3.851661,0.0775"
           style="fill:#72aa2d;fill-opacity:1;fill-rule:nonzero;stroke:none;stroke-width:0.05871435"
           id="path34"
           inkscape:connector-curvature="0" />
        <path
           d="m 78.315907,218.91952 c -4.095913,0 -9.809994,-6.92712 -12.288914,-10.2116 l 1.648699,-1.24416 c 6.014111,7.97047 10.03898,9.91157 11.16336,9.26336 1.122618,-0.6482 1.45318,-5.10404 -2.441343,-14.2987 -0.826698,-1.9546 -1.781981,-3.96792 -2.840013,-5.983 -0.568355,-1.0868 -1.179571,-2.19767 -1.817796,-3.30326 -0.641161,-1.10794 -1.297,-2.19299 -1.949904,-3.22518 l 0.871908,-0.55074 -0.0012,-1.03338 h 0.568355 l 0.307076,0.48087 c 0.666408,1.05393 1.336338,2.16304 1.991003,3.29447 0.654078,1.13142 1.279386,2.26813 1.860071,3.37901 1.08328,2.06439 2.063809,4.12938 2.912232,6.13623 1.821906,4.30024 5.621312,14.5547 1.57237,16.89271 -0.481458,0.27713 -1.004015,0.40337 -1.55593,0.40337"
           style="fill:#72aa2d;fill-opacity:1;fill-rule:nonzero;stroke:none;stroke-width:0.05871435"
           id="path36"
           inkscape:connector-curvature="0" />
        <path
           d="m 67.884128,241.14172 h -2.065571 v -33.05618 h 2.065571 v 33.05618"
           style="fill:#72aa2d;fill-opacity:1;fill-rule:nonzero;stroke:none;stroke-width:0.05871435"
           id="path38"
           inkscape:connector-curvature="0" />
        <path
           d="m 62.170635,203.1189 c -0.644684,-1.01517 -1.316376,-2.12546 -1.995701,-3.29916 -0.624133,-1.07682 -1.231827,-2.18065 -1.858896,-3.37373 -1.083867,-2.06674 -2.064397,-4.13173 -2.913406,-6.13858 -1.821319,-4.29966 -5.620138,-14.5547 -1.571783,-16.89271 4.051877,-2.33683 11.031839,6.08105 13.844843,9.80882 l -1.648699,1.24357 c -6.014111,-7.9693 -10.039566,-9.91216 -11.163946,-9.26336 -1.122619,0.6482 -1.45318,5.10345 2.441342,14.2987 0.827286,1.9546 1.782568,3.96733 2.840601,5.983 0.612978,1.16782 1.207754,2.24699 1.817209,3.29974 0.665233,1.14904 1.322247,2.23467 1.951665,3.22694 l -1.743229,1.10677"
           style="fill:#72aa2d;fill-opacity:1;fill-rule:nonzero;stroke:none;stroke-width:0.05871435"
           id="path40"
           inkscape:connector-curvature="0" />
        <path
           d="m 74.66681,225.72451 c -3.465321,0.49026 -6.214914,3.23927 -6.705179,6.70518 3.465321,-0.49027 6.214914,-3.23986 6.705179,-6.70518 z m -7.815467,8.84767 h -1.032786 v -1.0322 c 0,-5.49097 4.467575,-9.95854 9.959128,-9.95854 h 1.032199 v 1.03278 c 0,5.49097 -4.467575,9.95796 -9.958541,9.95796"
           style="fill:#72aa2d;fill-opacity:1;fill-rule:nonzero;stroke:none;stroke-width:0.05871435"
           id="path42"
           inkscape:connector-curvature="0" />
        <path
           d="m 59.662945,222.04429 c 0.435073,1.76202 1.825429,3.15238 3.587447,3.58686 -0.435074,-1.76201 -1.825429,-3.15178 -3.587447,-3.58686 z m 5.794519,5.79452 h -1.032198 c -3.843442,0 -6.969981,-3.12595 -6.969981,-6.96939 v -1.03279 h 1.032786 c 3.843441,0 6.969393,3.12654 6.969393,6.9694 v 1.03278"
           style="fill:#72aa2d;fill-opacity:1;fill-rule:nonzero;stroke:none;stroke-width:0.05871435"
           id="path44"
           inkscape:connector-curvature="0" />
      </g>
      <path
         inkscape:label="orange_circle"
         inkscape:connector-curvature="0"
         id="path46"
         style="display:inline;fill:#ffa500;fill-opacity:0.99476438;fill-rule:nonzero;stroke:none;stroke-width:0.05422816"
         d="m 101.23175,198.60716 c 0,6.7544 -2.160461,13.22798 -6.248943,18.72012 -3.937227,5.29648 -9.363704,9.30322 -15.704961,11.60192 0.301969,-0.72816 0.531076,-1.48806 0.685119,-2.27438 11.622028,-4.82319 19.31241,-15.8905 19.31241,-28.04766 0,-16.8656 -14.427586,-30.58747 -32.164552,-30.58747 -17.739172,0 -32.16676,13.72187 -32.16676,30.58747 0,14.37338 10.616044,26.86475 25.320566,29.8916 v 1.90262 C 44.450681,227.34014 32.98769,213.98737 32.98769,198.60716 c 0,-17.89147 15.305115,-32.44782 34.123133,-32.44782 18.815259,0 34.120927,14.55635 34.120927,32.44782" />
    </g>
  </g>
</svg>
